<svg width="32" height="32" viewBox="0 0 32 32" fill="none" xmlns="http://www.w3.org/2000/svg">
<g clip-path="url(#clip0)">
<path fill-rule="evenodd" clip-rule="evenodd" d="M15.9999 27.2206C22.1799 27.2206 27.2204 22.1801 27.2204 16.0001C27.2204 9.82 22.1799 4.77944 15.9999 4.77944C9.81973 4.77944 4.7793 9.82 4.7793 16C4.7793 22.18 9.81973 27.2206 15.9999 27.2206Z" fill="#17D1BF"/>
<path fill-rule="evenodd" clip-rule="evenodd" d="M8.55506 25.2139C10.6526 26.911 13.2966 27.8456 15.9998 27.8456C22.5314 27.8456 27.8453 22.5317 27.8453 16C27.8453 9.46831 22.5314 4.15443 15.9998 4.15443C13.2966 4.15443 10.6527 5.089 8.55506 6.786C6.48837 8.458 5.02912 10.7989 4.44619 13.3775C4.37006 13.7142 4.58131 14.0488 4.918 14.1249C5.25469 14.2009 5.58931 13.9898 5.66544 13.6531C6.76338 8.79637 11.0131 5.40443 15.9998 5.40443C21.8422 5.40443 26.5953 10.1576 26.5953 16C26.5953 21.8424 21.8422 26.5956 15.9998 26.5956C11.0131 26.5956 6.76344 23.2037 5.66544 18.3469C5.58931 18.0102 5.2545 17.7989 4.918 17.8751C4.58131 17.9513 4.37006 18.2859 4.44619 18.6226C5.02919 21.2011 6.48837 23.5419 8.55506 25.2139Z" fill="white"/>
<path fill-rule="evenodd" clip-rule="evenodd" d="M30.7249 9.73266C30.5896 9.41516 30.2224 9.26754 29.9049 9.40279C29.5873 9.5381 29.4396 9.90523 29.5749 10.2228C30.3547 12.0523 30.75 13.9964 30.75 16.0009C30.75 24.1341 24.1332 30.7509 16 30.7509C7.86686 30.7509 1.25 24.1341 1.25 16.0009C1.25 7.86773 7.86686 1.25093 16 1.25093C18.0049 1.25093 19.949 1.64625 21.7781 2.42599C22.0957 2.56124 22.4628 2.41374 22.5981 2.09612C22.7335 1.77862 22.5858 1.4115 22.2683 1.27612C20.2833 0.429998 18.1743 0.000999451 16 0.000999451C11.7263 0.000999451 7.7083 1.66531 4.6863 4.68724C1.66431 7.70929 0 11.7272 0 16.0009C0 20.2746 1.66431 24.2926 4.6863 27.3146C7.70836 30.3366 11.7263 32.0009 16 32.0009C20.2738 32.0009 24.2917 30.3366 27.3137 27.3146C30.3357 24.2926 32 20.2746 32 16.0009C32 13.827 31.571 11.7181 30.7249 9.73266Z" fill="white"/>
<path fill-rule="evenodd" clip-rule="evenodd" d="M23.5215 5.3975H26.2857V8.29925C26.2857 8.64443 26.5655 8.92425 26.9107 8.92425C27.2559 8.92425 27.5357 8.64443 27.5357 8.29925V5.3975H30.3C30.6452 5.3975 30.925 5.11762 30.925 4.7725C30.925 4.42737 30.6452 4.1475 30.3 4.1475H27.5357V1.24575C27.5357 0.900623 27.2559 0.620749 26.9107 0.620749C26.5655 0.620749 26.2857 0.900623 26.2857 1.24575V4.1475H23.5215C23.1763 4.1475 22.8965 4.42737 22.8965 4.7725C22.8965 5.11762 23.1763 5.3975 23.5215 5.3975Z" fill="white"/>
<path fill-rule="evenodd" clip-rule="evenodd" d="M15.0332 19.3888C15.0332 21.4708 16.7271 23.1648 18.8092 23.1648C20.8913 23.1648 22.5853 21.4708 22.5853 19.3888C22.5853 18.0737 21.9091 16.9141 20.8866 16.2377C21.9091 15.5614 22.5853 14.4018 22.5853 13.0867C22.5853 11.0046 20.8913 9.31068 18.8092 9.31068C16.7271 9.31068 15.0332 11.0046 15.0332 13.0867C15.0332 14.4018 15.7093 15.5614 16.7318 16.2377C15.7094 16.9141 15.0332 18.0737 15.0332 19.3888ZM16.2832 13.0867C16.2832 11.6939 17.4163 10.5607 18.8092 10.5607C20.2021 10.5607 21.3353 11.6939 21.3353 13.0867C21.3353 14.4796 20.2021 15.6127 18.8092 15.6127C17.4164 15.6127 16.2832 14.4796 16.2832 13.0867ZM18.8092 16.8627C20.2021 16.8627 21.3353 17.9959 21.3353 19.3888C21.3353 20.7816 20.2021 21.9148 18.8092 21.9148C17.4163 21.9148 16.2832 20.7816 16.2832 19.3888C16.2832 17.9959 17.4164 16.8627 18.8092 16.8627Z" fill="white"/>
<path fill-rule="evenodd" clip-rule="evenodd" d="M12.2833 10.1274C12.2829 10.1221 12.2829 10.1167 12.2824 10.1114C12.2804 10.0921 12.2774 10.0728 12.2736 10.0536C12.2726 10.0491 12.2714 10.0446 12.2704 10.0401C12.2667 10.0237 12.2628 10.0074 12.2578 9.99125C12.2546 9.98075 12.2504 9.97063 12.2466 9.96031C12.2433 9.95144 12.2406 9.9425 12.2369 9.93375C12.2292 9.91556 12.2206 9.89788 12.2113 9.88056C12.2109 9.87988 12.2107 9.87925 12.2103 9.87856C12.2004 9.86038 12.1897 9.84288 12.1781 9.82581C12.1754 9.82181 12.1721 9.818 12.1692 9.814C12.1601 9.80119 12.1507 9.78844 12.1407 9.77625C12.1401 9.7755 12.1396 9.77475 12.1389 9.774C12.1346 9.76875 12.1297 9.76425 12.1251 9.75919C12.1166 9.74969 12.1081 9.74006 12.0989 9.73113C12.0919 9.72413 12.0844 9.71775 12.077 9.71119C12.0692 9.70431 12.0616 9.69719 12.0536 9.69069C12.0452 9.68394 12.0365 9.67775 12.0279 9.67144C12.0201 9.66575 12.0124 9.65994 12.0044 9.65463C11.9956 9.64888 11.9866 9.64369 11.9777 9.63838C11.969 9.63325 11.9604 9.62806 11.9515 9.62338C11.9431 9.61894 11.9344 9.615 11.9258 9.611C11.9158 9.60638 11.9059 9.60163 11.8956 9.59744C11.8877 9.59425 11.8796 9.5915 11.8716 9.58863C11.8604 9.58463 11.8492 9.58056 11.8377 9.57719C11.8299 9.57488 11.822 9.57306 11.8142 9.57113C11.8024 9.56813 11.7907 9.56513 11.7787 9.56281C11.7699 9.56113 11.7611 9.56006 11.7522 9.55881C11.7411 9.55719 11.7301 9.55531 11.7187 9.55431C11.7074 9.55325 11.696 9.55306 11.6847 9.55263C11.6767 9.55231 11.6689 9.55138 11.6608 9.55138C11.6597 9.55138 11.6586 9.55156 11.6575 9.55156C11.6435 9.55163 11.6296 9.55269 11.6156 9.55363C11.6089 9.55413 11.6021 9.55413 11.5955 9.55481C11.5793 9.5565 11.5632 9.55925 11.5472 9.56219C11.5344 9.56456 11.5219 9.5675 11.5094 9.57063C11.4981 9.57344 11.4869 9.57588 11.4757 9.57931C11.4642 9.58294 11.4531 9.58744 11.4417 9.59163C11.4339 9.59463 11.4259 9.597 11.4181 9.60031C11.4012 9.60744 11.3848 9.6155 11.3686 9.62406C11.3663 9.62531 11.3639 9.62638 11.3616 9.62763C11.344 9.63725 11.3268 9.64769 11.3103 9.65894C11.3057 9.66213 11.3013 9.66581 11.2967 9.66913C11.2845 9.67794 11.2724 9.68675 11.2608 9.69638C11.26 9.69706 11.2592 9.69763 11.2584 9.69825L8.77824 11.7854C8.51412 12.0077 8.48024 12.4019 8.70249 12.666C8.82618 12.8129 9.00293 12.8886 9.18099 12.8886C9.32305 12.8886 9.46593 12.8404 9.58312 12.7417L11.0358 11.5193V22.2991C11.0358 22.6442 11.3156 22.9241 11.6608 22.9241C12.006 22.9241 12.2858 22.6442 12.2858 22.2991V10.1764C12.2858 10.1754 12.2857 10.1745 12.2857 10.1735C12.2856 10.1581 12.2845 10.1428 12.2833 10.1274Z" fill="white"/>
<path fill-rule="evenodd" clip-rule="evenodd" d="M5.4043 16C5.4043 15.6557 5.12355 15.375 4.7793 15.375C4.43505 15.375 4.1543 15.6557 4.1543 16C4.1543 16.3442 4.43505 16.625 4.7793 16.625C5.12348 16.625 5.4043 16.3442 5.4043 16Z" fill="white"/>
</g>
<defs>
<clipPath id="clip0">
<rect width="32" height="32" fill="white"/>
</clipPath>
</defs>
</svg>
