<svg width="27" height="27" viewBox="0 0 27 27" fill="none" xmlns="http://www.w3.org/2000/svg">
<g opacity="0.8">
<path fill-rule="evenodd" clip-rule="evenodd" d="M7.05711 21.2374C8.83935 22.6626 11.0858 23.4474 13.3827 23.4474C18.9324 23.4474 23.4475 18.985 23.4475 13.5C23.4475 8.01498 18.9324 3.55263 13.3827 3.55263C11.0858 3.55263 8.8394 4.33743 7.05711 5.7625C5.30111 7.16657 4.06123 9.13238 3.56592 11.2977C3.50124 11.5805 3.68074 11.8615 3.96681 11.9254C4.25288 11.9892 4.5372 11.8119 4.60188 11.5292C5.53477 7.45072 9.14561 4.60232 13.3827 4.60232C18.3468 4.60232 22.3854 8.59384 22.3854 13.5C22.3854 18.4062 18.3468 22.3977 13.3827 22.3977C9.14561 22.3977 5.53482 19.5493 4.60188 15.4709C4.5372 15.1881 4.25272 15.0107 3.96681 15.0746C3.68074 15.1386 3.50124 15.4196 3.56592 15.7023C4.06128 17.8676 5.30111 19.8334 7.05711 21.2374Z" fill="white"/>
<path fill-rule="evenodd" clip-rule="evenodd" d="M25.9241 8.21113C25.8099 7.94324 25.5002 7.81868 25.2322 7.93279C24.9643 8.04696 24.8397 8.35673 24.9539 8.62467C25.6118 10.1684 25.9453 11.8087 25.9453 13.5C25.9453 20.3624 20.3624 25.9453 13.5 25.9453C6.63766 25.9453 1.05469 20.3624 1.05469 13.5C1.05469 6.63758 6.63766 1.05464 13.5 1.05464C15.1916 1.05464 16.8319 1.38818 18.3753 2.0461C18.6433 2.16022 18.953 2.03576 19.0672 1.76777C19.1814 1.49987 19.0567 1.19011 18.7889 1.07589C17.114 0.36197 15.3346 0 13.5 0C9.89406 0 6.50388 1.40427 3.95407 3.95403C1.40426 6.5039 0 9.89404 0 13.5C0 17.1059 1.40426 20.4961 3.95407 23.046C6.50393 25.5958 9.89406 27 13.5 27C17.106 27 20.4961 25.5957 23.0459 23.046C25.5957 20.4961 27 17.106 27 13.5C27 11.6658 26.638 9.88634 25.9241 8.21113Z" fill="white"/>
<path fill-rule="evenodd" clip-rule="evenodd" d="M18.9724 4.38922H21.1742V6.62393C21.1742 6.88977 21.397 7.10526 21.672 7.10526C21.9469 7.10526 22.1698 6.88977 22.1698 6.62393V4.38922H24.3715C24.6465 4.38922 24.8693 4.17368 24.8693 3.90789C24.8693 3.6421 24.6465 3.42657 24.3715 3.42657H22.1698V1.19185C22.1698 0.926064 21.9469 0.710526 21.672 0.710526C21.397 0.710526 21.1742 0.926064 21.1742 1.19185V3.42657H18.9724C18.6975 3.42657 18.4746 3.6421 18.4746 3.90789C18.4746 4.17368 18.6975 4.38922 18.9724 4.38922Z" fill="white"/>
<path fill-rule="evenodd" clip-rule="evenodd" d="M12.7891 16.0857C12.7891 17.7942 14.064 19.1842 15.6311 19.1842C17.1983 19.1842 18.4733 17.7942 18.4733 16.0857C18.4733 15.0066 17.9644 14.055 17.1948 13.5C17.9644 12.9451 18.4733 11.9935 18.4733 10.9144C18.4733 9.20581 17.1983 7.81579 15.6311 7.81579C14.064 7.81579 12.7891 9.20576 12.7891 10.9144C12.7891 11.9935 13.298 12.9451 14.0676 13.5C13.298 14.055 12.7891 15.0066 12.7891 16.0857ZM13.7299 10.9144C13.7299 9.77139 14.5828 8.84152 15.6311 8.84152C16.6795 8.84152 17.5324 9.77139 17.5324 10.9144C17.5324 12.0573 16.6795 12.9872 15.6311 12.9872C14.5828 12.9872 13.7299 12.0573 13.7299 10.9144ZM15.6311 14.0129C16.6795 14.0129 17.5324 14.9428 17.5324 16.0857C17.5324 17.2286 16.6795 18.1585 15.6311 18.1585C14.5828 18.1585 13.7299 17.2286 13.7299 16.0857C13.7299 14.9428 14.5828 14.0129 15.6311 14.0129Z" fill="white"/>
<path fill-rule="evenodd" clip-rule="evenodd" d="M10.6557 8.98538C10.6553 8.98115 10.6554 8.97686 10.6548 8.97268C10.6529 8.95729 10.6501 8.9419 10.6464 8.9266C10.6455 8.92297 10.6444 8.91938 10.6434 8.91579C10.6399 8.90274 10.6362 8.88974 10.6314 8.87689C10.6283 8.86852 10.6243 8.86045 10.6207 8.85223C10.6176 8.84516 10.615 8.83804 10.6115 8.83106C10.6042 8.81657 10.596 8.80247 10.5871 8.78868C10.5868 8.78813 10.5865 8.78763 10.5862 8.78708C10.5768 8.77259 10.5665 8.75864 10.5555 8.74504C10.5529 8.74185 10.5498 8.73881 10.5471 8.73563C10.5384 8.72541 10.5295 8.71525 10.5199 8.70554C10.5193 8.70494 10.5188 8.70434 10.5182 8.70375C10.514 8.69956 10.5094 8.69598 10.5051 8.69194C10.4969 8.68437 10.4888 8.6767 10.4801 8.66958C10.4734 8.664 10.4662 8.65892 10.4592 8.65369C10.4518 8.64821 10.4446 8.64253 10.4369 8.63735C10.429 8.63197 10.4207 8.62704 10.4124 8.62201C10.4051 8.61747 10.3977 8.61284 10.3901 8.60861C10.3817 8.60402 10.3732 8.59989 10.3646 8.59566C10.3564 8.59157 10.3482 8.58744 10.3397 8.5837C10.3317 8.58016 10.3234 8.57703 10.3152 8.57384C10.3057 8.57015 10.2962 8.56637 10.2864 8.56303C10.2789 8.56049 10.2712 8.5583 10.2636 8.556C10.2529 8.55282 10.2423 8.54958 10.2313 8.54689C10.2239 8.54505 10.2164 8.5436 10.2089 8.54206C10.1977 8.53967 10.1865 8.53728 10.1751 8.53543C10.1668 8.53409 10.1583 8.53324 10.1499 8.53224C10.1393 8.53095 10.1288 8.52946 10.118 8.52866C10.1072 8.52781 10.0964 8.52766 10.0856 8.52731C10.078 8.52706 10.0705 8.52632 10.0628 8.52632C10.0618 8.52632 10.0608 8.52647 10.0597 8.52647C10.0464 8.52652 10.0331 8.52736 10.0198 8.52811C10.0134 8.52851 10.0069 8.52851 10.0006 8.52906C9.98522 8.5304 9.96992 8.53259 9.95462 8.53493C9.94242 8.53683 9.93052 8.53917 9.91861 8.54166C9.9079 8.5439 9.89718 8.54584 9.88659 8.54858C9.87557 8.55147 9.86498 8.55506 9.8542 8.5584C9.8467 8.56079 9.83914 8.56268 9.8317 8.56532C9.81557 8.571 9.79998 8.57742 9.78456 8.58425C9.78236 8.58524 9.7801 8.58609 9.77789 8.58709C9.76111 8.59476 9.74474 8.60308 9.72902 8.61204C9.72462 8.61458 9.72045 8.61752 9.7161 8.62016C9.70444 8.62719 9.69289 8.63421 9.68188 8.64188C9.6811 8.64243 9.68033 8.64288 9.67956 8.64337L7.31745 10.3068C7.0659 10.484 7.03364 10.7981 7.24531 11.0086C7.36311 11.1257 7.53145 11.186 7.70104 11.186C7.83634 11.186 7.97242 11.1477 8.08403 11.069L9.46758 10.0947V18.6861C9.46758 18.9612 9.73408 19.1842 10.0628 19.1842C10.3916 19.1842 10.6581 18.9612 10.6581 18.6861V9.02448C10.6581 9.02369 10.658 9.02294 10.658 9.02214C10.6579 9.00989 10.6568 8.99763 10.6557 8.98538Z" fill="white"/>
<path fill-rule="evenodd" clip-rule="evenodd" d="M4.97379 13.5C4.97379 13.1086 4.65462 12.7895 4.26326 12.7895C3.8719 12.7895 3.55273 13.1086 3.55273 13.5C3.55273 13.8914 3.8719 14.2105 4.26326 14.2105C4.65455 14.2105 4.97379 13.8914 4.97379 13.5Z" fill="white"/>
</g>
</svg>
