<svg width="26" height="24" viewBox="0 0 26 24" fill="none" xmlns="http://www.w3.org/2000/svg">
<path d="M22 22.5C22 21.6709 21.3685 21 20.588 21H4.41197C3.63154 21 3 21.6709 3 22.5C3 23.3291 3.63154 24 4.41197 24H20.588C21.3685 24 22 23.3264 22 22.5Z" fill="#FF3E78"/>
<path d="M1.73174 10.0463C1.75558 10.0463 1.77676 10.0463 1.80059 10.0435L4.10958 19H13.0013H21.8904L24.1994 10.0435C24.2232 10.0435 24.2444 10.0463 24.2683 10.0463C25.2242 10.0463 26 9.21479 26 8.19029C26 7.1658 25.2242 6.33428 24.2683 6.33428C23.3124 6.33428 22.5365 7.1658 22.5365 8.19029C22.5365 8.38895 22.5656 8.58193 22.6212 8.76072L18.4455 11.3773L13.9572 3.40269C14.4233 3.07065 14.7331 2.50022 14.7331 1.85601C14.7331 0.831516 13.9572 0 13.0013 0C12.0454 0 11.2696 0.831516 11.2696 1.85601C11.2696 2.50306 11.5767 3.07065 12.0454 3.40269L7.55718 11.3773L3.3814 8.76072C3.43436 8.58193 3.46614 8.38895 3.46614 8.19029C3.46614 7.1658 2.69029 6.33428 1.73439 6.33428C0.775843 6.33428 0 7.1658 0 8.19029C0 9.21479 0.775843 10.0463 1.73174 10.0463Z" fill="#FF3E78"/>
</svg>
